<svg xmlns="http://www.w3.org/2000/svg" viewBox="0 0 512 512" role="img" aria-labelledby="title desc">
  <title id="title">Logo oficial JH Nexus Anime</title>
  <desc id="desc">Monograma JH en pincel negro con anillo circular.</desc>
  <g fill="none" stroke="#111111" stroke-linecap="round" stroke-linejoin="round">
    <path d="M103 287c-21-106 58-195 170-214 82-13 164 22 214 95" stroke-width="14" opacity=".35"/>
    <path d="M91 303c-7-66 11-126 55-171 45-46 106-70 170-68 61 2 118 27 156 69" stroke-width="22" opacity=".86"/>
    <path d="M434 170c24 34 37 77 35 123-3 75-42 145-105 186" stroke-width="13" opacity=".42"/>
    <path d="M78 311c24 69 81 122 150 145 68 22 144 13 205-27" stroke-width="28" opacity=".92"/>
    <path d="M205 164c-29 3-50 19-50 40 0 16 11 25 31 31 15 5 21 12 20 25-2 27-27 49-68 61" stroke-width="31"/>
    <path d="M253 147c-16 88-17 164-6 228" stroke-width="36"/>
    <path d="M326 142c-17 81-24 157-22 229" stroke-width="34"/>
    <path d="M236 229c35-18 72-25 111-23" stroke-width="27"/>
  </g>
</svg>
